<?xml version="1.0" encoding="UTF-8" standalone="no"?>
<!-- Created with Inkscape (http://www.inkscape.org/) -->

<svg
   width="48.15424mm"
   height="48.154686mm"
   viewBox="0 0 48.15424 48.154686"
   version="1.1"
   id="svg1"
   sodipodi:docname="thedeep.svg"
   inkscape:version="1.3.2 (091e20e, 2023-11-25, custom)"
   xml:space="preserve"
   xmlns:inkscape="http://www.inkscape.org/namespaces/inkscape"
   xmlns:sodipodi="http://sodipodi.sourceforge.net/DTD/sodipodi-0.dtd"
   xmlns:xlink="http://www.w3.org/1999/xlink"
   xmlns="http://www.w3.org/2000/svg"
   xmlns:svg="http://www.w3.org/2000/svg"><sodipodi:namedview
     id="namedview1"
     pagecolor="#5879ff"
     bordercolor="#000000"
     borderopacity="0.25"
     inkscape:showpageshadow="2"
     inkscape:pageopacity="0.0"
     inkscape:pagecheckerboard="0"
     inkscape:deskcolor="#5f6cfd"
     inkscape:document-units="mm"
     inkscape:zoom="2.0000001"
     inkscape:cx="167.25"
     inkscape:cy="4634.7499"
     inkscape:window-width="1920"
     inkscape:window-height="991"
     inkscape:window-x="-9"
     inkscape:window-y="-9"
     inkscape:window-maximized="1"
     inkscape:current-layer="layer1"
     showgrid="true"
     showguides="false"><inkscape:grid
       id="grid141"
       units="mm"
       originx="-40.620187"
       originy="-1208.2264"
       spacingx="0.99999998"
       spacingy="1"
       empcolor="#ffffff"
       empopacity="0.17647059"
       color="#ffffff"
       opacity="0.83137255"
       empspacing="6"
       dotted="false"
       gridanglex="30"
       gridanglez="30"
       visible="true"
       enabled="false" /></sodipodi:namedview><defs
     id="defs1"><linearGradient
       id="linearGradient641"
       inkscape:collect="always"><stop
         style="stop-color:#ffffff;stop-opacity:1;"
         offset="0"
         id="stop641" /><stop
         style="stop-color:#ffffff;stop-opacity:0;"
         offset="1"
         id="stop642" /></linearGradient><linearGradient
       id="linearGradient635"
       inkscape:collect="always"><stop
         style="stop-color:#323353;stop-opacity:1;"
         offset="0"
         id="stop635" /><stop
         style="stop-color:#4d7cc9;stop-opacity:1"
         offset="1"
         id="stop636" /></linearGradient><linearGradient
       id="linearGradient633"
       inkscape:collect="always"><stop
         style="stop-color:#4d9be6;stop-opacity:1"
         offset="0"
         id="stop633" /><stop
         style="stop-color:#4d65b4;stop-opacity:1;"
         offset="1"
         id="stop634" /></linearGradient><linearGradient
       id="linearGradient604"
       inkscape:collect="always"><stop
         style="stop-color:#8fd3ff;stop-opacity:1"
         offset="0"
         id="stop604" /><stop
         style="stop-color:#1b74cb;stop-opacity:1;"
         offset="1"
         id="stop605" /></linearGradient><linearGradient
       id="linearGradient594"
       inkscape:collect="always"><stop
         style="stop-color:#4d9be6;stop-opacity:1;"
         offset="0"
         id="stop594" /><stop
         style="stop-color:#4d9be6;stop-opacity:0;"
         offset="1"
         id="stop595" /></linearGradient><linearGradient
       inkscape:collect="always"
       xlink:href="#linearGradient594"
       id="linearGradient595"
       x1="70.313019"
       y1="1239.639"
       x2="82.483864"
       y2="1251.3468"
       gradientUnits="userSpaceOnUse" /><linearGradient
       inkscape:collect="always"
       xlink:href="#linearGradient604"
       id="linearGradient605"
       x1="79.63958"
       y1="1214.4375"
       x2="79.63958"
       y2="1267.8833"
       gradientUnits="userSpaceOnUse"
       gradientTransform="translate(-0.65481033,-0.65481033)" /><linearGradient
       inkscape:collect="always"
       xlink:href="#linearGradient633"
       id="linearGradient634"
       x1="73.432297"
       y1="1228.9855"
       x2="73.432297"
       y2="1270.4257"
       gradientUnits="userSpaceOnUse" /><linearGradient
       inkscape:collect="always"
       xlink:href="#linearGradient635"
       id="linearGradient636"
       x1="64.426041"
       y1="1271.8521"
       x2="64.426041"
       y2="1249.0978"
       gradientUnits="userSpaceOnUse" /><linearGradient
       inkscape:collect="always"
       xlink:href="#linearGradient641"
       id="linearGradient644"
       x1="53.835831"
       y1="1196.2474"
       x2="53.835831"
       y2="1235.5923"
       gradientUnits="userSpaceOnUse"
       gradientTransform="matrix(1.3582955,0,-0.63244869,1.3582955,752.612,-434.80951)" /></defs><g
     inkscape:label="Layer 1"
     inkscape:groupmode="layer"
     id="layer1"
     transform="translate(-40.620187,-1208.2264)"><rect
       style="opacity:1;fill:url(#linearGradient605);fill-opacity:1;stroke:none;stroke-width:0.691999;stroke-linecap:round;stroke-dasharray:none;stroke-opacity:1;paint-order:stroke markers fill"
       id="rect604"
       width="48.154167"
       height="48.154167"
       x="40.620186"
       y="1208.2264"
       inkscape:export-filename="finQuestIcon.svg"
       inkscape:export-xdpi="1000"
       inkscape:export-ydpi="1000" /><path
       id="path639"
       style="color:#000000;opacity:0.450382;fill:url(#linearGradient644);fill-opacity:1;stroke-width:1;stroke-linecap:round;-inkscape-stroke:none;paint-order:stroke markers fill"
       d="m 47.339229,1208.2265 -6.718969,14.4307 v 10.4779 l 11.597741,-24.9086 z m 9.182386,0 -15.901355,34.1514 v 7.63 c 3.799495,-0.012 9.653148,-0.028 9.635587,0.01 l 19.458244,-41.7918 z m 14.219287,0 -19.458761,41.7918 c 0,0 2.794923,-0.052 2.77089,0 l 19.458761,-41.7918 z m 14.203267,0 -19.45876,41.7918 c 0,0 4.902803,-0.052 4.878772,0 l 18.410245,-39.5392 v -2.2526 z" /><path
       id="path635"
       style="opacity:0.307888;fill:url(#linearGradient636);fill-opacity:1;stroke:none;stroke-width:0.691999;stroke-linecap:round;stroke-opacity:1;paint-order:stroke markers fill"
       d="m 78.374028,1238.0149 c -0.02529,0.1631 -0.315179,2.0882 -0.406177,3.0075 -0.03019,0.305 -0.0519,0.5831 -0.06821,0.8558 -0.01218,0.2043 -0.0205,0.4072 -0.02325,0.6072 -0.0062,0.4569 0.01771,0.8999 0.0956,1.3203 0.03816,0.2074 0.101517,0.416 0.190169,0.6305 0.08673,0.2097 0.197162,0.4241 0.331246,0.6485 0.264824,0.4435 0.590885,0.878 0.98547,1.3953 0.0606,0.08 0.03965,0.052 0.100252,0.1312 0.282958,0.3711 0.725741,0.9199 1.081071,1.4547 0.371621,0.5592 0.739091,1.2256 0.956531,2.0294 0.159042,0.6828 0.204831,1.3122 0.148828,1.9073 -0.05668,0.6022 -0.213851,1.1275 -0.416512,1.5917 -0.204225,0.4677 -0.454772,0.8727 -0.66921,1.1989 -0.232287,0.353 -0.436757,0.6412 -0.591178,0.8847 -0.172912,0.2727 -0.281333,0.4782 -0.363802,0.6692 -0.0048,0.011 -0.0078,0.023 -0.0124,0.034 h -3.681429 c -0.02175,-0.3389 -0.05582,-0.6814 -0.110587,-1.0382 -0.0959,-0.6247 -0.239717,-1.2471 -0.411862,-1.8671 -6.4e-5,-10e-5 -0.01188,-0.044 -0.01188,-0.044 -0.371958,-1.3342 -0.83645,-2.7592 -0.945679,-4.3072 -0.02508,-0.3555 -0.03035,-0.704 -0.01447,-1.0465 0.02127,-0.4581 0.09007,-0.9441 0.206189,-1.4417 0.269787,-1.1561 0.719134,-2.0643 0.998388,-2.6314 -0.118966,0.6444 -0.197351,1.5985 -0.0894,2.698 0.04619,0.4704 0.11659,0.8924 0.191203,1.2955 0.05527,0.2988 0.118999,0.5973 0.19327,0.9039 0.349431,1.4429 0.775439,2.4789 1.268656,3.9801 -4.5e-5,-2e-4 0.01447,0.045 0.01447,0.045 0.103047,0.3151 0.209358,0.6455 0.308508,0.9876 0.232656,-0.3177 0.481762,-0.6097 0.692981,-0.861 0.217322,-0.2585 0.399728,-0.4827 0.54932,-0.7131 0.140149,-0.2159 0.258125,-0.4467 0.331763,-0.7219 0.0748,-0.2796 0.112183,-0.6294 0.06201,-1.0961 -0.0199,-0.5053 -0.147145,-1.001 -0.35295,-1.5032 -0.206738,-0.5044 -0.486637,-0.9965 -0.753443,-1.417 -0.02902,-0.045 -0.05812,-0.092 -0.08733,-0.1375 -0.340408,-0.5326 -0.6882,-1.0602 -0.972033,-1.6117 -0.147661,-0.2869 -0.278304,-0.5812 -0.380856,-0.8853 -0.105381,-0.3125 -0.180669,-0.6343 -0.214457,-0.9668 -0.05342,-0.5637 -0.0192,-1.1189 0.06925,-1.6423 0.03892,-0.2304 0.08849,-0.457 0.147278,-0.678 0.07741,-0.291 0.176214,-0.5884 0.291455,-0.8894 0.435466,-1.1374 1.186915,-2.4383 1.363225,-2.7765 z m -5.939173,1.8138 c 0.179405,0.3485 0.614328,1.0244 1.051616,1.7968 0.309306,0.5461 0.570932,1.1033 0.729671,1.7374 0.02858,0.114 0.05411,0.2307 0.07648,0.3503 0.09823,0.7368 0.07492,1.4364 -0.0041,2.1105 -0.07753,0.6605 -0.208686,1.2965 -0.329696,1.9141 -0.116376,0.594 -0.222486,1.1682 -0.2682,1.7436 -0.04258,0.5357 -0.03337,1.0802 0.07648,1.6541 0.0097,0.051 0.01987,0.1049 0.03049,0.1576 0.106036,0.5273 0.268051,1.0927 0.489892,1.7653 0.229034,0.6942 0.477899,1.3765 0.706934,2.0707 0.131022,0.3975 0.256829,0.8194 0.373104,1.2516 h -2.904732 c -0.03306,-0.1816 -0.06185,-0.36 -0.09974,-0.5457 -0.145943,-0.7153 -0.317212,-1.4392 -0.465088,-2.1348 -0.158377,-0.7448 -0.278613,-1.3991 -0.359151,-2.049 -0.008,-0.066 -0.01576,-0.1298 -0.02274,-0.1943 -0.0931,-0.8486 -0.01805,-1.6107 0.116789,-2.2789 0.141538,-0.7013 0.362094,-1.3559 0.562756,-1.9234 0.219119,-0.6196 0.421127,-1.1544 0.582394,-1.7229 0.159561,-0.5624 0.270131,-1.1314 0.278536,-1.7358 0.008,-0.097 0.01311,-0.1927 0.01499,-0.2883 0.01125,-0.5381 -0.05506,-1.0565 -0.180868,-1.6552 -0.174743,-0.8313 -0.384597,-1.6384 -0.455786,-2.0237 z m -21.140828,0 c 0.179405,0.3485 0.613813,1.0244 1.051098,1.7968 0.309309,0.5461 0.571452,1.1033 0.730188,1.7374 0.02858,0.114 0.05411,0.2307 0.07648,0.3503 0.09823,0.7368 0.07491,1.4364 -0.0041,2.1105 -0.07753,0.6605 -0.208685,1.2965 -0.329695,1.9141 -0.116376,0.594 -0.223004,1.1682 -0.268718,1.7436 -0.04258,0.5357 -0.03337,1.0802 0.07648,1.6541 0.0097,0.051 0.02039,0.1049 0.03101,0.1576 0.106036,0.5273 0.268049,1.0927 0.489893,1.7653 0.229034,0.6942 0.477382,1.3765 0.706417,2.0707 0.131021,0.3975 0.257201,0.8194 0.37362,1.2516 h -2.904732 c -0.033,-0.1816 -0.06185,-0.36 -0.09973,-0.5457 -0.145943,-0.7153 -0.317212,-1.4392 -0.465088,-2.1348 -0.158377,-0.7448 -0.27913,-1.3991 -0.359668,-2.049 -0.008,-0.066 -0.01524,-0.1298 -0.02222,-0.1943 -0.0931,-0.8486 -0.01805,-1.6107 0.116789,-2.2789 0.141535,-0.7013 0.362091,-1.3559 0.562756,-1.9234 0.219119,-0.6196 0.421126,-1.1544 0.582393,-1.7229 0.159561,-0.5624 0.270131,-1.1314 0.278536,-1.7358 0.008,-0.097 0.01259,-0.1927 0.01447,-0.2883 0.01125,-0.5381 -0.05454,-1.0565 -0.180351,-1.6552 -0.174746,-0.8313 -0.384597,-1.6384 -0.455786,-2.0237 z m -2.36523,0.9932 c 0.176488,0.3385 0.927839,1.6384 1.363224,2.7756 0.115241,0.301 0.214045,0.5988 0.291455,0.8898 0.05879,0.221 0.108358,0.4476 0.147278,0.678 0.08845,0.5234 0.122662,1.0786 0.06925,1.6423 -0.03379,0.3325 -0.109076,0.6544 -0.214457,0.9669 -0.102552,0.3041 -0.233197,0.5983 -0.380855,0.8852 -0.283835,0.5515 -0.631624,1.0787 -0.972034,1.6113 -0.02921,0.045 -0.05883,0.093 -0.08785,0.1379 -0.266806,0.4205 -0.546188,0.9126 -0.752926,1.417 -0.205802,0.5022 -0.33305,0.998 -0.35295,1.5033 -0.05017,0.4667 -0.01279,0.8159 0.06201,1.0955 0.07364,0.2752 0.191614,0.5066 0.331763,0.7225 0.149594,0.2304 0.331998,0.4546 0.54932,0.7131 0.132757,0.1579 0.280196,0.3347 0.429431,0.5204 h -3.465421 c -0.19857,-0.4594 -0.352872,-0.9777 -0.408761,-1.5715 -0.01212,-0.1288 -0.01719,-0.26 -0.01964,-0.3922 -0.06853,0.308 -0.128254,0.6164 -0.1757,0.9255 -0.05477,0.3568 -0.08846,0.6993 -0.11007,1.0382 H 43.20098 c 0.0176,-0.4687 0.07335,-0.9332 0.165881,-1.3927 0.147525,-0.7325 0.368798,-1.4268 0.576192,-2.0609 0,0 0.01452,-0.046 0.01447,-0.045 0.493217,-1.5012 0.919222,-2.5372 1.268656,-3.9801 0.07427,-0.3066 0.138,-0.6051 0.19327,-0.9039 0.07461,-0.4031 0.14553,-0.8251 0.19172,-1.2955 0.107948,-1.0995 0.02957,-2.0536 -0.0894,-2.698 0.279257,0.5671 0.7286,1.4753 0.998389,2.6314 0.116123,0.4976 0.184402,0.9836 0.205672,1.4417 0.01588,0.3425 0.01061,0.691 -0.01447,1.0465 -0.05507,0.7804 -0.200569,1.5294 -0.378788,2.2515 0.101021,-0.1758 0.204504,-0.3448 0.309541,-0.5028 0.35533,-0.5348 0.79863,-1.0841 1.081588,-1.4552 0.06061,-0.079 0.03914,-0.051 0.09974,-0.1307 0.394582,-0.5173 0.721162,-0.9518 0.985986,-1.3953 0.134084,-0.2244 0.244516,-0.4389 0.331246,-0.6486 0.08865,-0.2145 0.152009,-0.423 0.190169,-0.6304 0.07789,-0.4204 0.101804,-0.864 0.0956,-1.3209 -0.0028,-0.2 -0.01159,-0.4023 -0.02377,-0.6066 -0.01631,-0.2727 -0.03751,-0.5513 -0.0677,-0.8563 -0.091,-0.9193 -0.380889,-2.844 -0.406176,-3.0071 z m 15.301908,0.6568 c 0.279257,0.5672 0.728083,1.4747 0.997872,2.6309 0.116123,0.4976 0.184919,0.9837 0.206189,1.4418 0.01588,0.3425 0.01061,0.6914 -0.01447,1.0469 -0.109229,1.548 -0.573204,2.9731 -0.945162,4.3073 0,0 -0.01234,0.044 -0.0124,0.044 -0.172145,0.62 -0.315961,1.2429 -0.411861,1.8676 -0.09972,0.6496 -0.140859,1.2528 -0.137459,1.8707 0.0021,0.3868 0.02173,0.7551 0.04857,1.1332 0.0118,0.1661 0.02364,0.3345 0.03772,0.5096 0.158851,-0.3171 0.333073,-0.6089 0.50953,-0.8744 0.355327,-0.5348 0.798113,-1.0841 1.081071,-1.4552 0.06061,-0.079 0.03965,-0.051 0.100252,-0.1308 0.394585,-0.5173 0.720646,-0.9517 0.98547,-1.3952 0.134084,-0.2244 0.244516,-0.4389 0.331246,-0.6486 0.08865,-0.2145 0.152526,-0.423 0.190686,-0.6304 0.07789,-0.4204 0.101288,-0.864 0.09508,-1.3209 -0.0027,-0.2 -0.01107,-0.4024 -0.02325,-0.6067 -0.01631,-0.2727 -0.03802,-0.5512 -0.06821,-0.8562 -0.091,-0.9193 -0.38037,-2.844 -0.40566,-3.0071 0.17631,0.3382 0.927761,1.6387 1.363224,2.7761 0.115241,0.301 0.213529,0.5988 0.290939,0.8898 0.05879,0.221 0.108874,0.4476 0.147794,0.678 0.08845,0.5234 0.12215,1.0786 0.06873,1.6423 -0.03379,0.3325 -0.109076,0.6544 -0.214457,0.9669 -0.102552,0.3041 -0.232678,0.5983 -0.380339,0.8852 -0.283835,0.5515 -0.632143,1.0787 -0.97255,1.6113 -0.02921,0.045 -0.05831,0.093 -0.08733,0.1379 -0.261579,0.4123 -0.533526,0.894 -0.738973,1.3881 h -6.502962 c -0.02262,-0.094 -0.04095,-0.1882 -0.06408,-0.2811 -0.02692,-0.1082 -0.05397,-0.2193 -0.08062,-0.3318 -0.03878,-0.1638 -0.07607,-0.3329 -0.112138,-0.5054 0.03589,0.3696 0.03833,0.743 0.01809,1.1183 h -2.000911 c -0.0048,-0.5564 -0.04165,-1.1059 -0.131775,-1.6929 -0.0959,-0.6247 -0.239719,-1.2476 -0.411861,-1.8676 -6.4e-5,-10e-5 -0.01189,-0.044 -0.01189,-0.044 -0.371958,-1.3342 -0.83645,-2.7592 -0.945679,-4.3072 -0.02508,-0.3555 -0.03035,-0.7045 -0.01447,-1.047 0.02127,-0.4578 0.09007,-0.9441 0.206189,-1.4417 0.269789,-1.1562 0.719132,-2.0637 0.998389,-2.6309 -0.118969,0.6444 -0.197353,1.5986 -0.0894,2.6981 0.04619,0.4704 0.11659,0.8919 0.191203,1.295 0.05527,0.2988 0.118999,0.5977 0.19327,0.9043 0.349434,1.4429 0.775439,2.4789 1.268656,3.9801 -4.5e-5,-2e-4 0.01499,0.045 0.01499,0.045 0.190146,0.5813 0.388931,1.2153 0.534851,1.881 -0.01087,-0.095 -0.02352,-0.19 -0.03152,-0.2868 -0.05835,-0.7062 -0.03218,-1.4065 0.112138,-2.1079 0.08094,-0.3936 0.195159,-0.7681 0.337447,-1.1219 0.143802,-0.3575 0.334336,-0.7192 0.564307,-1.0805 0.617915,-0.9707 1.398677,-1.7465 1.8526,-2.2154 -0.304947,0.6179 -0.664458,1.5755 -0.842843,2.6184 -0.06477,0.3787 -0.0986,0.7175 -0.120923,1.0356 -0.02184,0.3129 -0.02708,0.6205 -0.0124,0.9313 0.02585,0.5487 0.111157,1.0685 0.24598,1.6086 0.131108,0.5252 0.301522,1.0397 0.484208,1.5772 0.05187,0.1532 0.05293,0.1552 0.101802,0.2987 -0.03942,-0.1988 -0.07157,-0.4012 -0.09198,-0.6082 -0.07812,-0.7924 -0.01029,-1.5724 0.144178,-2.3394 0.147525,-0.7325 0.368795,-1.4273 0.576192,-2.0614 0,0 0.01451,-0.045 0.01447,-0.045 0.49322,-1.5012 0.919223,-2.5372 1.268657,-3.9801 0.07427,-0.3066 0.138,-0.6055 0.19327,-0.9043 0.07461,-0.4031 0.145012,-0.8246 0.191202,-1.295 0.107951,-1.0995 0.03009,-2.0537 -0.08888,-2.6981 z m -18.956466,1.6614 c -0.136471,0.7127 -0.301874,1.8393 -0.72657,2.9745 -0.130621,0.3491 -0.279378,0.7003 -0.441834,1.0589 -0.228575,0.5046 -0.473528,1.0012 -0.68988,1.4686 -0.211748,0.4577 -0.385676,0.8647 -0.522966,1.2733 -0.04035,0.1201 -0.0763,0.2373 -0.109037,0.3545 -0.07577,0.2702 -0.129136,0.5658 -0.155546,0.8904 -0.03551,0.4361 -0.02152,0.9067 0.03669,1.4485 0.0965,0.898 0.345538,1.9852 0.409278,2.8029 0.02611,0.335 6.61e-4,0.6621 -0.03462,0.969 h -1.360123 c -0.105504,-0.128 -0.207746,-0.2636 -0.297657,-0.4145 -0.324099,-0.544 -0.593275,-1.2955 -0.76171,-2.0913 v -3.2282 c 0.08152,-0.3583 0.178568,-0.6901 0.283703,-0.985 0.05439,-0.1525 0.114061,-0.3023 0.178801,-0.4522 0.217677,-0.5022 0.485365,-0.9723 0.780314,-1.4288 0.298437,-0.462 0.641881,-0.9356 0.958598,-1.3617 0.214339,-0.2885 0.467172,-0.623 0.668176,-0.8857 0.628548,-0.8219 1.489826,-1.9074 1.784387,-2.3932 z m 24.115841,0.3323 c -0.08753,0.9233 -0.06141,2.0659 0.2651,3.5347 0.07208,0.3242 0.162109,0.6523 0.266134,0.9875 0.392963,1.266 1.000182,2.5986 1.457275,4.1083 0.0084,0.028 0.01702,0.056 0.02532,0.084 0.321437,1.0819 0.779688,2.5861 0.851111,4.1936 h -2.987414 c 0.04936,-1.2484 -0.07557,-2.502 -0.2651,-3.6349 3.1e-5,10e-5 -0.01395,-0.083 -0.01395,-0.083 -0.256031,-1.5497 -0.404707,-2.9952 -0.396358,-4.4788 0.0022,-0.378 0.01402,-0.7423 0.03411,-1.0987 0.08939,-1.5911 0.446045,-2.7754 0.763778,-3.6127 z m 17.763257,0.5318 c -0.118969,0.6444 -0.19735,1.5985 -0.0894,2.698 0.04619,0.4704 0.117107,0.8924 0.19172,1.2955 0.05527,0.2988 0.118482,0.5972 0.192753,0.9038 0.349434,1.4429 0.775437,2.479 1.268657,3.9802 -4.5e-5,-2e-4 0.01499,0.045 0.01499,0.045 0.01418,0.043 0.0281,0.092 0.04237,0.1359 v 3.3182 h -1.331184 c -0.02175,-0.3391 -0.05579,-0.6817 -0.110588,-1.0387 -0.05175,-0.3371 -0.118252,-0.6735 -0.19482,-1.0093 -0.0748,0.717 -0.255613,1.4284 -0.489893,2.048 h -2.06344 c 0.09244,-0.7659 0.285485,-1.6812 0.369487,-2.4629 0.05821,-0.5418 0.07168,-1.0124 0.03617,-1.4485 -0.02641,-0.3246 -0.07926,-0.6197 -0.155029,-0.8899 -0.03274,-0.1172 -0.06921,-0.2349 -0.109554,-0.355 -0.13729,-0.4086 -0.310701,-0.8156 -0.522449,-1.2733 -0.216352,-0.4674 -0.461305,-0.9641 -0.68988,-1.4686 -0.162456,-0.3586 -0.311732,-0.7098 -0.44235,-1.0589 -0.424699,-1.1352 -0.5901,-2.2618 -0.726571,-2.9745 0.294564,0.4858 1.155839,1.5718 1.784387,2.3937 0.201004,0.2627 0.45384,0.5972 0.668176,0.8857 0.316717,0.4261 0.660164,0.8991 0.958598,1.3611 0.08361,0.1294 0.164697,0.2603 0.243396,0.3923 -0.01263,-0.1193 -0.02714,-0.238 -0.03566,-0.3587 -0.02508,-0.3555 -0.03035,-0.7039 -0.01447,-1.0464 0.02127,-0.4581 0.09007,-0.9442 0.206189,-1.4418 0.269731,-1.1558 0.719119,-2.0637 0.998389,-2.6308 z m -32.553569,5e-4 c -0.118969,0.6444 -0.197351,1.5985 -0.0894,2.698 0.04619,0.4704 0.117107,0.8924 0.19172,1.2955 0.05527,0.2988 0.118998,0.5973 0.193269,0.9039 0.349434,1.4429 0.775437,2.4789 1.268657,3.9801 -4.5e-5,-2e-4 0.01447,0.045 0.01447,0.045 0.207397,0.6341 0.42867,1.3284 0.576192,2.0609 0.09253,0.4595 0.148279,0.924 0.165882,1.3927 h -2.030884 c -0.02161,-0.3389 -0.0553,-0.6814 -0.110071,-1.0382 -0.0959,-0.6247 -0.239716,-1.2471 -0.411861,-1.8671 -6.4e-5,-10e-5 -0.0124,-0.044 -0.0124,-0.044 -0.371958,-1.3342 -0.835933,-2.7592 -0.945162,-4.3072 -0.02508,-0.3555 -0.03035,-0.704 -0.01447,-1.0465 0.02127,-0.4581 0.08955,-0.9441 0.205673,-1.4417 0.269786,-1.1561 0.719131,-2.0643 0.998388,-2.6314 z m 26.874846,3.3347 c 0.453791,0.4688 1.23532,1.2451 1.853633,2.2164 0.229971,0.3613 0.419988,0.723 0.56379,1.0805 0.142288,0.3538 0.256502,0.7283 0.337447,1.1219 0.144318,0.7014 0.171004,1.4017 0.112655,2.1079 -0.05582,0.6756 -0.186359,1.3182 -0.324528,1.9017 -0.02665,0.1125 -0.0537,0.2236 -0.08062,0.3318 -0.02312,0.093 -0.04098,0.1875 -0.06356,0.2811 h -2.586406 c 0.113299,-0.3301 0.229828,-0.6684 0.329696,-0.9617 0.0534,-0.1568 0.05098,-0.1498 0.104386,-0.3075 0.182686,-0.5375 0.3531,-1.052 0.484208,-1.5772 0.134823,-0.5401 0.22013,-1.0599 0.24598,-1.6086 0.01468,-0.3108 0.0094,-0.6184 -0.0124,-0.9313 -0.02232,-0.3181 -0.05616,-0.6569 -0.120923,-1.0356 -0.178479,-1.0435 -0.538312,-2.0015 -0.843358,-2.6194 z" /><path
       id="path613"
       style="opacity:0.307888;fill:url(#linearGradient634);fill-opacity:1;stroke:none;stroke-width:0.691999;stroke-linecap:round;stroke-opacity:1;paint-order:stroke markers fill"
       d="m 51.020658,1238.0149 c 0.02529,0.1631 0.315179,2.0882 0.406177,3.0075 0.03019,0.305 0.0519,0.5831 0.06821,0.8558 0.01218,0.2043 0.0205,0.4072 0.02325,0.6072 0.0062,0.4569 -0.01771,0.8999 -0.0956,1.3203 -0.03816,0.2074 -0.101517,0.416 -0.190169,0.6305 -0.08673,0.2097 -0.197162,0.4241 -0.331246,0.6485 -0.264824,0.4435 -0.590885,0.878 -0.98547,1.3953 -0.0606,0.08 -0.03965,0.052 -0.100252,0.1312 -0.282958,0.3711 -0.725741,0.9199 -1.081071,1.4547 -0.371621,0.5592 -0.739091,1.2256 -0.956531,2.0294 -0.159042,0.6828 -0.204831,1.3122 -0.148828,1.9073 0.05668,0.6022 0.213851,1.1275 0.416512,1.5917 0.204225,0.4677 0.454772,0.8727 0.66921,1.1989 0.232287,0.353 0.436757,0.6412 0.591178,0.8847 0.172912,0.2727 0.281333,0.4782 0.363802,0.6692 0.0048,0.011 0.0078,0.023 0.0124,0.034 h 3.681429 c 0.02175,-0.3389 0.05582,-0.6814 0.110587,-1.0382 0.0959,-0.6247 0.239717,-1.2471 0.411862,-1.8671 6.4e-5,-10e-5 0.01188,-0.044 0.01188,-0.044 0.371958,-1.3342 0.83645,-2.7592 0.945679,-4.3072 0.02508,-0.3555 0.03035,-0.704 0.01447,-1.0465 -0.02127,-0.4581 -0.09007,-0.9441 -0.206189,-1.4417 -0.269787,-1.1561 -0.719134,-2.0643 -0.998388,-2.6314 0.118966,0.6444 0.197351,1.5985 0.0894,2.698 -0.04619,0.4704 -0.11659,0.8924 -0.191203,1.2955 -0.05527,0.2988 -0.118999,0.5973 -0.19327,0.9039 -0.349431,1.4429 -0.775439,2.4789 -1.268656,3.9801 4.5e-5,-2e-4 -0.01447,0.045 -0.01447,0.045 -0.103047,0.3151 -0.209358,0.6455 -0.308508,0.9876 -0.232656,-0.3177 -0.481762,-0.6097 -0.692981,-0.861 -0.217322,-0.2585 -0.399728,-0.4827 -0.54932,-0.7131 -0.140149,-0.2159 -0.258125,-0.4467 -0.331763,-0.7219 -0.0748,-0.2796 -0.112183,-0.6294 -0.06201,-1.0961 0.0199,-0.5053 0.147145,-1.001 0.35295,-1.5032 0.206738,-0.5044 0.486637,-0.9965 0.753443,-1.417 0.02902,-0.045 0.05812,-0.092 0.08733,-0.1375 0.340408,-0.5326 0.6882,-1.0602 0.972033,-1.6117 0.147661,-0.2869 0.278304,-0.5812 0.380856,-0.8853 0.105381,-0.3125 0.180669,-0.6343 0.214457,-0.9668 0.05342,-0.5637 0.0192,-1.1189 -0.06925,-1.6423 -0.03892,-0.2304 -0.08849,-0.457 -0.147278,-0.678 -0.07741,-0.291 -0.176214,-0.5884 -0.291455,-0.8894 -0.435466,-1.1374 -1.186915,-2.4383 -1.363225,-2.7765 z m 5.939173,1.8138 c -0.179405,0.3485 -0.614328,1.0244 -1.051616,1.7968 -0.309306,0.5461 -0.570932,1.1033 -0.729671,1.7374 -0.02858,0.114 -0.05411,0.2307 -0.07648,0.3503 -0.09823,0.7368 -0.07492,1.4364 0.0041,2.1105 0.07753,0.6605 0.208686,1.2965 0.329696,1.9141 0.116376,0.594 0.222486,1.1682 0.2682,1.7436 0.04258,0.5357 0.03337,1.0802 -0.07648,1.6541 -0.0097,0.051 -0.01987,0.1049 -0.03049,0.1576 -0.106036,0.5273 -0.268051,1.0927 -0.489892,1.7653 -0.229034,0.6942 -0.477899,1.3765 -0.706934,2.0707 -0.131022,0.3975 -0.256829,0.8194 -0.373104,1.2516 h 2.904732 c 0.03306,-0.1816 0.06185,-0.36 0.09974,-0.5457 0.145943,-0.7153 0.317212,-1.4392 0.465088,-2.1348 0.158377,-0.7448 0.278613,-1.3991 0.359151,-2.049 0.008,-0.066 0.01576,-0.1298 0.02274,-0.1943 0.0931,-0.8486 0.01805,-1.6107 -0.116789,-2.2789 -0.141538,-0.7013 -0.362094,-1.3559 -0.562756,-1.9234 -0.219119,-0.6196 -0.421127,-1.1544 -0.582394,-1.7229 -0.159561,-0.5624 -0.270131,-1.1314 -0.278536,-1.7358 -0.008,-0.097 -0.01311,-0.1927 -0.01499,-0.2883 -0.01125,-0.5381 0.05506,-1.0565 0.180868,-1.6552 0.174743,-0.8313 0.384597,-1.6384 0.455786,-2.0237 z m 21.140828,0 c -0.179405,0.3485 -0.613813,1.0244 -1.051098,1.7968 -0.309309,0.5461 -0.571452,1.1033 -0.730188,1.7374 -0.02858,0.114 -0.05411,0.2307 -0.07648,0.3503 -0.09823,0.7368 -0.07491,1.4364 0.0041,2.1105 0.07753,0.6605 0.208685,1.2965 0.329695,1.9141 0.116376,0.594 0.223004,1.1682 0.268718,1.7436 0.04258,0.5357 0.03337,1.0802 -0.07648,1.6541 -0.0097,0.051 -0.02039,0.1049 -0.03101,0.1576 -0.106036,0.5273 -0.268049,1.0927 -0.489893,1.7653 -0.229034,0.6942 -0.477382,1.3765 -0.706417,2.0707 -0.131021,0.3975 -0.257201,0.8194 -0.37362,1.2516 h 2.904732 c 0.033,-0.1816 0.06185,-0.36 0.09973,-0.5457 0.145943,-0.7153 0.317212,-1.4392 0.465088,-2.1348 0.158377,-0.7448 0.27913,-1.3991 0.359668,-2.049 0.008,-0.066 0.01524,-0.1298 0.02222,-0.1943 0.0931,-0.8486 0.01805,-1.6107 -0.116789,-2.2789 -0.141535,-0.7013 -0.362091,-1.3559 -0.562756,-1.9234 -0.219119,-0.6196 -0.421126,-1.1544 -0.582393,-1.7229 -0.159561,-0.5624 -0.270131,-1.1314 -0.278536,-1.7358 -0.008,-0.097 -0.01259,-0.1927 -0.01447,-0.2883 -0.01125,-0.5381 0.05454,-1.0565 0.180351,-1.6552 0.174746,-0.8313 0.384597,-1.6384 0.455786,-2.0237 z m 2.36523,0.9932 c -0.176488,0.3385 -0.927839,1.6384 -1.363224,2.7756 -0.115241,0.301 -0.214045,0.5988 -0.291455,0.8898 -0.05879,0.221 -0.108358,0.4476 -0.147278,0.678 -0.08845,0.5234 -0.122662,1.0786 -0.06925,1.6423 0.03379,0.3325 0.109076,0.6544 0.214457,0.9669 0.102552,0.3041 0.233197,0.5983 0.380855,0.8852 0.283835,0.5515 0.631624,1.0787 0.972034,1.6113 0.02921,0.045 0.05883,0.093 0.08785,0.1379 0.266806,0.4205 0.546188,0.9126 0.752926,1.417 0.205802,0.5022 0.33305,0.998 0.35295,1.5033 0.05017,0.4667 0.01279,0.8159 -0.06201,1.0955 -0.07364,0.2752 -0.191614,0.5066 -0.331763,0.7225 -0.149594,0.2304 -0.331998,0.4546 -0.54932,0.7131 -0.132757,0.1579 -0.280196,0.3347 -0.429431,0.5204 h 3.465421 c 0.19857,-0.4594 0.352872,-0.9777 0.408761,-1.5715 0.01212,-0.1288 0.01719,-0.26 0.01964,-0.3922 0.06853,0.308 0.128254,0.6164 0.1757,0.9255 0.05477,0.3568 0.08846,0.6993 0.11007,1.0382 h 2.030884 c -0.0176,-0.4687 -0.07335,-0.9332 -0.165881,-1.3927 -0.147525,-0.7325 -0.368798,-1.4268 -0.576192,-2.0609 0,0 -0.01452,-0.046 -0.01447,-0.045 -0.493217,-1.5012 -0.919222,-2.5372 -1.268656,-3.9801 -0.07427,-0.3066 -0.138,-0.6051 -0.19327,-0.9039 -0.07461,-0.4031 -0.14553,-0.8251 -0.19172,-1.2955 -0.107948,-1.0995 -0.02957,-2.0536 0.0894,-2.698 -0.279257,0.5671 -0.7286,1.4753 -0.998389,2.6314 -0.116123,0.4976 -0.184402,0.9836 -0.205672,1.4417 -0.01588,0.3425 -0.01061,0.691 0.01447,1.0465 0.05507,0.7804 0.200569,1.5294 0.378788,2.2515 -0.101021,-0.1758 -0.204504,-0.3448 -0.309541,-0.5028 -0.35533,-0.5348 -0.79863,-1.0841 -1.081588,-1.4552 -0.06061,-0.079 -0.03914,-0.051 -0.09974,-0.1307 -0.394582,-0.5173 -0.721162,-0.9518 -0.985986,-1.3953 -0.134084,-0.2244 -0.244516,-0.4389 -0.331246,-0.6486 -0.08865,-0.2145 -0.152009,-0.423 -0.190169,-0.6304 -0.07789,-0.4204 -0.101804,-0.864 -0.0956,-1.3209 0.0028,-0.2 0.01159,-0.4023 0.02377,-0.6066 0.01631,-0.2727 0.03751,-0.5513 0.0677,-0.8563 0.091,-0.9193 0.380889,-2.844 0.406176,-3.0071 z m -15.301908,0.6568 c -0.279257,0.5672 -0.728083,1.4747 -0.997872,2.6309 -0.116123,0.4976 -0.184919,0.9837 -0.206189,1.4418 -0.01588,0.3425 -0.01061,0.6914 0.01447,1.0469 0.109229,1.548 0.573204,2.9731 0.945162,4.3073 0,0 0.01234,0.044 0.0124,0.044 0.172145,0.62 0.315961,1.2429 0.411861,1.8676 0.09972,0.6496 0.140859,1.2528 0.137459,1.8707 -0.0021,0.3868 -0.02173,0.7551 -0.04857,1.1332 -0.0118,0.1661 -0.02364,0.3345 -0.03772,0.5096 -0.158851,-0.3171 -0.333073,-0.6089 -0.50953,-0.8744 -0.355327,-0.5348 -0.798113,-1.0841 -1.081071,-1.4552 -0.06061,-0.079 -0.03965,-0.051 -0.100252,-0.1308 -0.394585,-0.5173 -0.720646,-0.9517 -0.98547,-1.3952 -0.134084,-0.2244 -0.244516,-0.4389 -0.331246,-0.6486 -0.08865,-0.2145 -0.152526,-0.423 -0.190686,-0.6304 -0.07789,-0.4204 -0.101288,-0.864 -0.09508,-1.3209 0.0027,-0.2 0.01107,-0.4024 0.02325,-0.6067 0.01631,-0.2727 0.03802,-0.5512 0.06821,-0.8562 0.091,-0.9193 0.38037,-2.844 0.40566,-3.0071 -0.17631,0.3382 -0.927761,1.6387 -1.363224,2.7761 -0.115241,0.301 -0.213529,0.5988 -0.290939,0.8898 -0.05879,0.221 -0.108874,0.4476 -0.147794,0.678 -0.08845,0.5234 -0.12215,1.0786 -0.06873,1.6423 0.03379,0.3325 0.109076,0.6544 0.214457,0.9669 0.102552,0.3041 0.232678,0.5983 0.380339,0.8852 0.283835,0.5515 0.632143,1.0787 0.97255,1.6113 0.02921,0.045 0.05831,0.093 0.08733,0.1379 0.261579,0.4123 0.533526,0.894 0.738973,1.3881 h 6.502962 c 0.02262,-0.094 0.04095,-0.1882 0.06408,-0.2811 0.02692,-0.1082 0.05396,-0.2193 0.08061,-0.3318 0.03878,-0.1638 0.07607,-0.3329 0.112138,-0.5054 -0.03589,0.3696 -0.03833,0.743 -0.01809,1.1183 h 2.000911 c 0.0048,-0.5564 0.04165,-1.1059 0.131775,-1.6929 0.0959,-0.6247 0.239719,-1.2476 0.411861,-1.8676 6.4e-5,-10e-5 0.01189,-0.044 0.01189,-0.044 0.371958,-1.3342 0.83645,-2.7592 0.945679,-4.3072 0.02508,-0.3555 0.03035,-0.7045 0.01447,-1.047 -0.02127,-0.4578 -0.09007,-0.9441 -0.206189,-1.4417 -0.269789,-1.1562 -0.719132,-2.0637 -0.998389,-2.6309 0.118969,0.6444 0.197353,1.5986 0.0894,2.6981 -0.04619,0.4704 -0.11659,0.8919 -0.191203,1.295 -0.05527,0.2988 -0.118999,0.5977 -0.19327,0.9043 -0.349434,1.4429 -0.775439,2.4789 -1.268656,3.9801 4.5e-5,-2e-4 -0.01499,0.045 -0.01499,0.045 -0.190146,0.5813 -0.388931,1.2153 -0.534851,1.881 0.01087,-0.095 0.02352,-0.19 0.03152,-0.2868 0.05835,-0.7062 0.03218,-1.4065 -0.112138,-2.1079 -0.08094,-0.3936 -0.195159,-0.7681 -0.337447,-1.1219 -0.143802,-0.3575 -0.334336,-0.7192 -0.564307,-1.0805 -0.617915,-0.9707 -1.398677,-1.7465 -1.8526,-2.2154 0.304947,0.6179 0.664458,1.5755 0.842843,2.6184 0.06477,0.3787 0.0986,0.7175 0.120923,1.0356 0.02184,0.3129 0.02708,0.6205 0.0124,0.9313 -0.02585,0.5487 -0.111157,1.0685 -0.24598,1.6086 -0.131108,0.5252 -0.301522,1.0397 -0.484208,1.5772 -0.05187,0.1532 -0.05293,0.1552 -0.101802,0.2987 0.03942,-0.1988 0.07157,-0.4012 0.09198,-0.6082 0.07812,-0.7924 0.01029,-1.5724 -0.144178,-2.3394 -0.147525,-0.7325 -0.368795,-1.4273 -0.576192,-2.0614 0,0 -0.01451,-0.045 -0.01447,-0.045 -0.49322,-1.5012 -0.919223,-2.5372 -1.268657,-3.9801 -0.07427,-0.3066 -0.138,-0.6055 -0.19327,-0.9043 -0.07461,-0.4031 -0.145012,-0.8246 -0.191202,-1.295 -0.107951,-1.0995 -0.03009,-2.0537 0.08888,-2.6981 z m 18.956466,1.6614 c 0.136471,0.7127 0.301874,1.8393 0.72657,2.9745 0.130621,0.3491 0.279378,0.7003 0.441834,1.0589 0.228575,0.5046 0.473528,1.0012 0.68988,1.4686 0.211748,0.4577 0.385676,0.8647 0.522966,1.2733 0.04035,0.1201 0.0763,0.2373 0.109037,0.3545 0.07577,0.2702 0.129136,0.5658 0.155546,0.8904 0.03551,0.4361 0.02152,0.9067 -0.03669,1.4485 -0.0965,0.898 -0.345538,1.9852 -0.409278,2.8029 -0.02611,0.335 -6.61e-4,0.6621 0.03462,0.969 h 1.360123 c 0.105504,-0.128 0.207746,-0.2636 0.297657,-0.4145 0.324099,-0.544 0.593275,-1.2955 0.76171,-2.0913 v -3.2282 c -0.08152,-0.3583 -0.178568,-0.6901 -0.283703,-0.985 -0.05439,-0.1525 -0.114061,-0.3023 -0.178801,-0.4522 -0.217677,-0.5022 -0.485365,-0.9723 -0.780314,-1.4288 -0.298437,-0.462 -0.641881,-0.9356 -0.958598,-1.3617 -0.214339,-0.2885 -0.467172,-0.623 -0.668176,-0.8857 -0.628548,-0.8219 -1.489826,-1.9074 -1.784387,-2.3932 z m -24.115841,0.3323 c 0.08753,0.9233 0.06141,2.0659 -0.2651,3.5347 -0.07208,0.3242 -0.162109,0.6523 -0.266134,0.9875 -0.392963,1.266 -1.000182,2.5986 -1.457275,4.1083 -0.0084,0.028 -0.01702,0.056 -0.02532,0.084 -0.321437,1.0819 -0.779688,2.5861 -0.851111,4.1936 h 2.987414 c -0.04936,-1.2484 0.07557,-2.502 0.2651,-3.6349 -3.1e-5,10e-5 0.01395,-0.083 0.01395,-0.083 0.256031,-1.5497 0.404707,-2.9952 0.396358,-4.4788 -0.0022,-0.378 -0.01402,-0.7423 -0.03411,-1.0987 -0.08939,-1.5911 -0.446045,-2.7754 -0.763778,-3.6127 z m -17.763257,0.5318 c 0.118969,0.6444 0.19735,1.5985 0.0894,2.698 -0.04619,0.4704 -0.117107,0.8924 -0.19172,1.2955 -0.05527,0.2988 -0.118482,0.5972 -0.192753,0.9038 -0.349434,1.4429 -0.775437,2.479 -1.268657,3.9802 4.5e-5,-2e-4 -0.01499,0.045 -0.01499,0.045 -0.01418,0.043 -0.0281,0.092 -0.04237,0.1359 v 3.3182 h 1.331184 c 0.02175,-0.3391 0.05579,-0.6817 0.110588,-1.0387 0.05175,-0.3371 0.118252,-0.6735 0.19482,-1.0093 0.0748,0.717 0.255613,1.4284 0.489893,2.048 h 2.06344 c -0.09244,-0.7659 -0.285485,-1.6812 -0.369487,-2.4629 -0.05821,-0.5418 -0.07168,-1.0124 -0.03617,-1.4485 0.02641,-0.3246 0.07926,-0.6197 0.155029,-0.8899 0.03274,-0.1172 0.06921,-0.2349 0.109554,-0.355 0.13729,-0.4086 0.310701,-0.8156 0.522449,-1.2733 0.216352,-0.4674 0.461305,-0.9641 0.68988,-1.4686 0.162456,-0.3586 0.311732,-0.7098 0.44235,-1.0589 0.424699,-1.1352 0.5901,-2.2618 0.726571,-2.9745 -0.294564,0.4858 -1.155839,1.5718 -1.784387,2.3937 -0.201004,0.2627 -0.45384,0.5972 -0.668176,0.8857 -0.316717,0.4261 -0.660164,0.8991 -0.958598,1.3611 -0.08361,0.1294 -0.164697,0.2603 -0.243396,0.3923 0.01263,-0.1193 0.02714,-0.238 0.03566,-0.3587 0.02508,-0.3555 0.03035,-0.7039 0.01447,-1.0464 -0.02127,-0.4581 -0.09007,-0.9442 -0.206189,-1.4418 -0.269731,-1.1558 -0.719119,-2.0637 -0.998389,-2.6308 z m 32.553569,5e-4 c 0.118969,0.6444 0.197351,1.5985 0.0894,2.698 -0.04619,0.4704 -0.117107,0.8924 -0.19172,1.2955 -0.05527,0.2988 -0.118998,0.5973 -0.193269,0.9039 -0.349434,1.4429 -0.775437,2.4789 -1.268657,3.9801 4.5e-5,-2e-4 -0.01447,0.045 -0.01447,0.045 -0.207397,0.6341 -0.42867,1.3284 -0.576192,2.0609 -0.09253,0.4595 -0.148279,0.924 -0.165882,1.3927 h 2.030884 c 0.02161,-0.3389 0.0553,-0.6814 0.110071,-1.0382 0.0959,-0.6247 0.239716,-1.2471 0.411861,-1.8671 6.4e-5,-10e-5 0.0124,-0.044 0.0124,-0.044 0.371958,-1.3342 0.835933,-2.7592 0.945162,-4.3072 0.02508,-0.3555 0.03035,-0.704 0.01447,-1.0465 -0.02127,-0.4581 -0.08955,-0.9441 -0.205673,-1.4417 -0.269786,-1.1561 -0.719131,-2.0643 -0.998388,-2.6314 z m -26.874846,3.3347 c -0.453791,0.4688 -1.23532,1.2451 -1.853633,2.2164 -0.229971,0.3613 -0.419988,0.723 -0.56379,1.0805 -0.142288,0.3538 -0.256502,0.7283 -0.337447,1.1219 -0.144318,0.7014 -0.171004,1.4017 -0.112655,2.1079 0.05582,0.6756 0.186359,1.3182 0.324528,1.9017 0.02665,0.1125 0.0537,0.2236 0.08062,0.3318 0.02313,0.093 0.04098,0.1875 0.06356,0.2811 h 2.586406 c -0.113299,-0.3301 -0.229828,-0.6684 -0.329696,-0.9617 -0.0534,-0.1568 -0.05098,-0.1498 -0.104386,-0.3075 -0.182686,-0.5375 -0.3531,-1.052 -0.484208,-1.5772 -0.134823,-0.5401 -0.22013,-1.0599 -0.24598,-1.6086 -0.01468,-0.3108 -0.0094,-0.6184 0.0124,-0.9313 0.02232,-0.3181 0.05616,-0.6569 0.120923,-1.0356 0.178479,-1.0435 0.538312,-2.0015 0.843359,-2.6194 z" /><g
       id="g604"
       transform="matrix(0.86500023,0,0,0.86532869,8.7893429,165.33398)"
       style="stroke-width:1.15585"><path
         id="path599"
         style="color:#000000;-inkscape-font-specification:'Mont Heavy';fill:#323353;stroke:#ffffff;stroke-width:1.15585;stroke-linecap:round;stroke-linejoin:round;-inkscape-stroke:none;paint-order:stroke markers fill"
         d="m 63.771301,1214.3264 c -9.36243,0 -16.60157,6.9036 -16.60157,15.9489 0,9.1416 8.75789,18.0997 18.717203,18.0997 0.834746,0 1.60731,-0.1449 2.37815,-0.2967 1.024911,2.6328 2.060651,3.5793 3.953729,5.4954 h 5.16e-4 c 0.868579,0.9635 2.355317,1.1797 3.475757,0.3979 l 6.793384,-4.7424 c 1.384355,-0.9663 1.521979,-2.9644 0.283187,-4.1114 -0.656569,-0.6082 -3.053377,-2.9854 -3.316077,-3.2287 1.921528,-2.6358 3.030823,-5.9001 3.030823,-9.494 0,-9.1198 -8.740748,-18.064 -18.715137,-18.064 z m 2.115633,13.8963 c 0.610286,0 1.154653,0.085 1.634009,0.246 0.179136,0.5209 0.271818,1.1239 0.271818,1.8066 0,2.7522 -1.445531,4.2034 -4.02146,4.2034 -0.609673,0 -1.161083,-0.092 -1.648995,-0.2672 -0.193397,-0.5283 -0.296106,-1.1368 -0.296106,-1.8211 0,-2.6238 1.549812,-4.1677 4.060734,-4.1677 z"
         sodipodi:nodetypes="ssscccccscssscsscssc" /><path
         style="font-weight:900;font-size:16.9333px;font-family:Mont;-inkscape-font-specification:'Mont Heavy';letter-spacing:-0.529167px;fill:#ffffff;stroke:none;stroke-width:6.11638;stroke-linecap:round;stroke-linejoin:round;stroke-dasharray:none;stroke-opacity:1;paint-order:stroke markers fill"
         d="m 63.770699,1216.9725 c -8.155142,0 -13.954748,5.5819 -13.954748,13.3021 0,7.7564 5.799606,13.3387 13.954748,13.3387 1.703509,0 3.334392,-0.2543 4.820451,-0.6892 l 3.473558,6.7566 6.792638,-4.7428 -5.264341,-4.8764 c 2.609653,-2.3922 4.131329,-5.7637 4.131329,-9.7869 0,-7.7564 -5.798492,-13.3021 -13.953635,-13.3021 z m 0,6.4884 c 3.878219,0 6.668762,2.8631 6.668762,6.8137 0,3.9868 -2.790543,6.8501 -6.668762,6.8501 -3.841981,0 -6.70637,-2.8994 -6.70637,-6.8501 0,-3.9145 2.864389,-6.8137 6.70637,-6.8137 z"
         id="path590"
         sodipodi:nodetypes="sssccccsssssss" /><path
         id="path594"
         style="font-weight:900;font-size:16.9333px;font-family:Mont;-inkscape-font-specification:'Mont Heavy';letter-spacing:-0.529167px;fill:url(#linearGradient595);fill-opacity:1;stroke:none;stroke-width:7.83038;stroke-linecap:round;stroke-linejoin:round;paint-order:stroke markers fill"
         d="m 50.435547,1231.8223 c 0.368687,4.1835 3.084445,7.971 6.856844,9.8487 5.632223,2.8034 11.511525,0.4761 11.511525,0.4761 0,0 2.297779,4.5039 3.453896,6.7533 1.919271,-1.3399 3.838542,-2.6797 5.757813,-4.0195 -1.59375,-1.4766 -5.213893,-4.839 -5.213893,-4.839 0,0 4.637591,-3.1851 4.481112,-10.7983 -1.50585,1.9562 -3.108826,3.134 -6.535928,1.9045 0.360001,2.6182 -2.657716,7.2182 -7.949278,6.4443 -4.357885,-0.6325 -6.158279,-3.9981 -6.301544,-6.9986 -2.545573,-0.6064 -4.382509,-0.267 -6.060547,1.2285 z"
         sodipodi:nodetypes="csccccccccc" /><ellipse
         style="opacity:1;fill:#ffffff;fill-opacity:1;stroke:none;stroke-width:0.799848;stroke-linecap:round;stroke-dasharray:none;stroke-opacity:1;paint-order:stroke markers fill"
         id="path600"
         cx="54.616673"
         cy="1232.7178"
         rx="0.53890824"
         ry="0.53787744" /><ellipse
         style="opacity:1;fill:#ffffff;fill-opacity:1;stroke:none;stroke-width:0.799848;stroke-linecap:round;stroke-dasharray:none;stroke-opacity:1;paint-order:stroke markers fill"
         id="circle601"
         cx="55.003109"
         cy="1231.8296"
         rx="0.73205113"
         ry="0.7306509" /><ellipse
         style="opacity:1;fill:#ffffff;fill-opacity:1;stroke:none;stroke-width:0.799848;stroke-linecap:round;stroke-dasharray:none;stroke-opacity:1;paint-order:stroke markers fill"
         id="ellipse601"
         cx="74.744179"
         cy="1232.2236"
         rx="0.53890824"
         ry="0.53787744" /><ellipse
         style="opacity:1;fill:#ffffff;fill-opacity:1;stroke:none;stroke-width:0.799848;stroke-linecap:round;stroke-dasharray:none;stroke-opacity:1;paint-order:stroke markers fill"
         id="ellipse602"
         cx="73.833298"
         cy="1234.1954"
         rx="0.81969339"
         ry="0.81820667" /><ellipse
         style="opacity:1;fill:#ffffff;fill-opacity:1;stroke:none;stroke-width:0.799848;stroke-linecap:round;stroke-dasharray:none;stroke-opacity:1;paint-order:stroke markers fill"
         id="ellipse603"
         cx="73.022354"
         cy="1233.4868"
         rx="0.53890824"
         ry="0.53787744" /><ellipse
         style="opacity:1;fill:#ffffff;fill-opacity:1;stroke:none;stroke-width:0.799848;stroke-linecap:round;stroke-dasharray:none;stroke-opacity:1;paint-order:stroke markers fill"
         id="ellipse604"
         cx="52.615761"
         cy="1231.3783"
         rx="0.53890824"
         ry="0.53787744" /></g><ellipse
       style="opacity:0.450382;fill:none;fill-opacity:1;stroke:#ffffff;stroke-width:0.1;stroke-linecap:round;stroke-dasharray:none;stroke-opacity:1;paint-order:stroke markers fill"
       id="path645"
       cx="83.955734"
       cy="1231.9613"
       rx="0.82658279"
       ry="0.84217983" /><ellipse
       style="opacity:0.450382;fill:none;fill-opacity:1;stroke:#ffffff;stroke-width:0.1;stroke-linecap:round;stroke-dasharray:none;stroke-opacity:1;paint-order:stroke markers fill"
       id="circle645"
       cx="84.828339"
       cy="1233.5381"
       rx="0.53022557"
       ry="0.54023057" /><ellipse
       style="opacity:0.450382;fill:none;fill-opacity:1;stroke:#ffffff;stroke-width:0.1;stroke-linecap:round;stroke-dasharray:none;stroke-opacity:1;paint-order:stroke markers fill"
       id="ellipse645"
       cx="43.739067"
       cy="1231.9613"
       rx="0.82658279"
       ry="0.84217983" /><ellipse
       style="opacity:0.450382;fill:none;fill-opacity:1;stroke:#ffffff;stroke-width:0.1;stroke-linecap:round;stroke-dasharray:none;stroke-opacity:1;paint-order:stroke markers fill"
       id="ellipse646"
       cx="44.578598"
       cy="1234.431"
       rx="0.53022557"
       ry="0.54023057" /><ellipse
       style="opacity:0.450382;fill:none;fill-opacity:1;stroke:#ffffff;stroke-width:0.1;stroke-linecap:round;stroke-dasharray:none;stroke-opacity:1;paint-order:stroke markers fill"
       id="ellipse647"
       cx="44.611671"
       cy="1229.2717"
       rx="0.53022557"
       ry="0.54023057" /><ellipse
       style="opacity:0.450382;fill:none;fill-opacity:1;stroke:#ffffff;stroke-width:0.1;stroke-linecap:round;stroke-dasharray:none;stroke-opacity:1;paint-order:stroke markers fill"
       id="ellipse648"
       cx="48.154301"
       cy="1236.2112"
       rx="0.82658279"
       ry="0.84217983" /><ellipse
       style="opacity:0.450382;fill:none;fill-opacity:1;stroke:#ffffff;stroke-width:0.1;stroke-linecap:round;stroke-dasharray:none;stroke-opacity:1;paint-order:stroke markers fill"
       id="ellipse649"
       cx="78.79007"
       cy="1217.97"
       rx="0.82658279"
       ry="0.84217983" /><ellipse
       style="opacity:0.450382;fill:none;fill-opacity:1;stroke:#ffffff;stroke-width:0.1;stroke-linecap:round;stroke-dasharray:none;stroke-opacity:1;paint-order:stroke markers fill"
       id="ellipse650"
       cx="81.788147"
       cy="1239.4314"
       rx="0.53022557"
       ry="0.54023057" /><ellipse
       style="opacity:0.450382;fill:none;fill-opacity:1;stroke:#ffffff;stroke-width:0.1;stroke-linecap:round;stroke-dasharray:none;stroke-opacity:1;paint-order:stroke markers fill"
       id="ellipse651"
       cx="86.79277"
       cy="1217.8226"
       rx="0.53022557"
       ry="0.54023057" /></g></svg>
