<?xml version="1.0" encoding="UTF-8" standalone="no"?>
<!-- Created with Inkscape (http://www.inkscape.org/) -->

<svg
   width="70.290894mm"
   height="24.324873mm"
   viewBox="0 0 70.290894 24.324873"
   version="1.1"
   id="svg1"
   sodipodi:docname="thedeep.svg"
   inkscape:version="1.3.2 (091e20e, 2023-11-25, custom)"
   xml:space="preserve"
   xmlns:inkscape="http://www.inkscape.org/namespaces/inkscape"
   xmlns:sodipodi="http://sodipodi.sourceforge.net/DTD/sodipodi-0.dtd"
   xmlns:xlink="http://www.w3.org/1999/xlink"
   xmlns="http://www.w3.org/2000/svg"
   xmlns:svg="http://www.w3.org/2000/svg"><sodipodi:namedview
     id="namedview1"
     pagecolor="#5879ff"
     bordercolor="#000000"
     borderopacity="0.25"
     inkscape:showpageshadow="2"
     inkscape:pageopacity="0.0"
     inkscape:pagecheckerboard="0"
     inkscape:deskcolor="#5f6cfd"
     inkscape:document-units="mm"
     inkscape:zoom="0.7071068"
     inkscape:cx="43.133512"
     inkscape:cy="4707.2097"
     inkscape:window-width="1920"
     inkscape:window-height="991"
     inkscape:window-x="-9"
     inkscape:window-y="-9"
     inkscape:window-maximized="1"
     inkscape:current-layer="layer1"
     showgrid="true"><inkscape:grid
       id="grid141"
       units="mm"
       originx="42.29903"
       originy="-1241.789"
       spacingx="0.99999998"
       spacingy="1"
       empcolor="#ffffff"
       empopacity="0.17647059"
       color="#ffffff"
       opacity="0.83137255"
       empspacing="6"
       dotted="false"
       gridanglex="30"
       gridanglez="30"
       visible="true"
       enabled="false" /></sodipodi:namedview><defs
     id="defs1"><linearGradient
       id="linearGradient336"
       inkscape:collect="always"><stop
         style="stop-color:#4d9be6;stop-opacity:1;"
         offset="0"
         id="stop336" /><stop
         style="stop-color:#4d9be6;stop-opacity:0;"
         offset="1"
         id="stop337" /></linearGradient><linearGradient
       inkscape:collect="always"
       xlink:href="#linearGradient336"
       id="linearGradient337"
       x1="3.9288621"
       y1="1256.7213"
       x2="4.3030396"
       y2="1261.8663"
       gradientUnits="userSpaceOnUse" /></defs><g
     inkscape:label="Layer 1"
     inkscape:groupmode="layer"
     id="layer1"
     transform="translate(42.299031,-1241.789)"><path
       id="path333"
       style="color:#000000;-inkscape-font-specification:'Mont Heavy';fill:#323353;fill-opacity:1;stroke:#ffffff;stroke-linecap:round;stroke-linejoin:round;-inkscape-stroke:none;paint-order:stroke markers fill"
       d="m 22.654431,1242.289 -3.150712,0.2951 c -0.813662,0.076 -1.435722,0.7589 -1.435571,1.5761 v 2.7223 c -0.926285,-0.4259 -1.959455,-0.6444 -3.087667,-0.5389 -1.432504,0.134 -2.725643,0.6109 -3.715019,1.4609 -0.308831,0.2653 -0.509994,0.6308 -0.742073,0.9689 -0.03539,-0.033 -0.04738,-0.085 -0.08372,-0.1173 -1.2268659,-1.0885 -2.948728,-1.6117 -4.7929892,-1.4392 -1.4948958,0.1398 -2.7758596,0.8066 -3.8457601,1.7012 -0.2589647,-0.5616 -0.82130085,-0.9209 -1.43970544,-0.9199 l -3.15019536,0.2946 c -0.6347668,0.1501 -1.1124122,0.6743 -1.2030273,1.3203 -0.2214764,-0.6415 -0.8272534,-1.0703 -1.5058512,-1.0661 l -3.1507121,0.2946 c -0.06645,0.062 -0.1274807,0.1289 -0.1824178,0.201 -0.1140839,-0.089 -0.2248781,-0.1824 -0.3446818,-0.264 -0.1360122,-0.2202 -0.2733816,-0.4387 -0.4687053,-0.6067 -1.5148224,-1.3038 -3.6103824,-1.8969 -5.8694094,-1.6857 -3.210932,0.3003 -5.806639,2.2316 -7.080188,4.8772 -1.154705,-0.8957 -2.661716,-1.2735 -4.26744,-1.1234 -0.746766,0.07 -1.425159,0.2956 -2.058789,0.5994 v -0.8299 c -0.0015,-0.4767 -0.219529,-0.9105 -0.56844,-1.2036 h 0.0098 l -0.964799,-0.9643 c -0.01724,-0.017 -0.03419,-0.035 -0.05219,-0.052 l -0.02842,-0.028 5.17e-4,0.01 c -0.316331,-0.2796 -0.738559,-0.433 -1.183391,-0.3943 0,0 -5.658359,0.546 -5.677689,0.5297 -1.252902,0.1171 -2.415993,0.5989 -3.218925,1.4805 -0.802931,0.8815 -1.161686,2.0704 -1.161686,3.2836 v 0.7203 l -0.03359,2.5978 c -5e-5,0.01 -5e-5,0.014 0,0.022 v 6.5195 c 0.02254,0.4316 0.220635,0.8348 0.548287,1.1167 l -0.114722,-0.028 1.082105,1.0832 0.01654,-0.064 c 0.317948,0.3563 0.779785,0.55 1.256771,0.5271 l 3.148645,-0.2951 c 0.474791,-0.1791 0.834934,-0.5749 0.968416,-1.0645 0.275622,0.5203 0.817318,0.8446 1.406116,0.8418 l 3.311426,-0.3095 2.747636,-0.2569 c 0.5285,-0.049 0.997142,-0.36 1.247986,-0.8278 0.198448,-0.3698 0.347055,-0.7463 0.467671,-1.124 l 1.021127,1.0232 c 0.05039,0.059 0.104709,0.1125 0.16278,0.1628 l 0.04186,0.042 -5.16e-4,-0.01 c 0.296658,0.2398 0.675373,0.3756 1.078487,0.3535 l 2.403987,-0.2243 c 0.813096,-0.076 1.434948,-0.7579 1.435572,-1.5745 v -0.2109 c 1.471656,1.0817 3.343424,1.6442 5.408455,1.4511 0.30295,-0.028 0.580535,-0.1065 0.857829,-0.1866 l 0.419612,0.7762 c 0.0409,0.068 0.08899,0.1303 0.13901,0.1907 l -0.0041,-5e-4 0.01499,0.015 c 0.02756,0.033 0.05888,0.061 0.08888,0.091 l 1.013374,1.0413 c 0.01584,0.018 0.03357,0.034 0.05013,0.052 l 0.107487,0.11 5.16e-4,-0.012 c 0.554815,0.4884 1.403798,0.5498 2.0231326,0.059 l 3.1718994,-2.5115 c 0.3296574,-0.2928 0.5222009,-0.7099 0.5312337,-1.1508 0.9105051,0.3535 1.8926096,0.5608 2.9553752,0.4614 2.02019436,-0.1889 3.67977783,-1.2706 4.7459635,-2.7771 0.1142095,0.1226 0.1656505,0.296 0.2909383,0.4078 1.2312079,1.0983 2.9439414,1.6223 4.7537151,1.4531 1.8974777,-0.1774 3.5584272,-1.1237 4.7423462,-2.5042 0.195304,0.2285 0.322689,0.5128 0.566374,0.6935 1.090312,0.8082 2.504728,1.0796 4.025594,0.9374 1.486768,-0.1391 2.821257,-0.6391 3.831807,-1.5234 0.132047,-0.1155 0.195953,-0.2903 0.31471,-0.4197 0.898846,0.7899 2.12544,1.0527 3.357417,0.9375 l 2.2009,-0.2052 c 0.813662,-0.076 1.435722,-0.7589 1.435571,-1.5761 v -2.4221 c -0.0013,-0.4219 -0.171556,-0.8111 -0.452169,-1.0986 h 0.0026 l -0.02946,-0.03 h -0.0015 c -5.2e-4,-5e-4 -9.5e-4,-0 -0.0016,0 l -1.045414,-1.0366 c -0.01729,-0.017 -0.03408,-0.035 -0.05219,-0.052 l -0.02635,-0.026 0.0026,0.01 c -0.0539,-0.048 -0.1085,-0.095 -0.168982,-0.1349 l 0.354501,-0.034 c 0.813089,-0.076 1.434947,-0.758 1.435571,-1.5746 v -2.6055 c -0.0012,-0.4316 -0.178127,-0.8305 -0.470256,-1.1198 l 0.001,-6e-4 -0.01085,-0.011 -5.17e-4,-5e-4 -5.17e-4,-5e-4 -1.039213,-1.0325 0.0062,0.013 c -0.15082,-0.1558 -0.330634,-0.2841 -0.536402,-0.368 v -1.049 c -0.01577,-0.4334 -0.20714,-0.8282 -0.511597,-1.1079 l 5.17e-4,-5e-4 h -0.0036 l -1.051616,-1.0424 c -0.0083,-0.01 -0.01687,-0.016 -0.02532,-0.025 l -0.04031,-0.04 0.0052,0.01 c -0.306073,-0.2845 -0.719061,-0.4483 -1.160136,-0.4247 z m -36.814807,11.4298 v 0 c 0.114762,-0.011 0.213851,-0.01 0.307475,0 0.0096,0.082 0.02067,0.1616 0.02067,0.2579 0,1.1241 -0.638461,1.8186 -1.681551,1.9162 -0.118687,0.011 -0.224065,0.011 -0.321427,0 -0.01141,-0.087 -0.02222,-0.1745 -0.02222,-0.2775 0,-1.0568 0.687883,-1.8058 1.697054,-1.9002 z"
       inkscape:export-filename="..\Documents\thedeep-(2)\assets\Submarine Parts\game-logo.svg"
       inkscape:export-xdpi="120"
       inkscape:export-ydpi="120" /><path
       id="path331"
       style="font-weight:900;font-size:16.9333px;font-family:Mont;-inkscape-font-specification:'Mont Heavy';letter-spacing:-0.529167px;fill:#ffffff;stroke:none;stroke-width:3.165;stroke-linecap:round;stroke-linejoin:round;stroke-dasharray:none;paint-order:stroke markers fill"
       d="m -37.236487,1249.4806 c -1.930398,0.1805 -2.946073,1.3422 -2.946073,3.188 v 0.7312 l -0.03411,2.6077 v 6.5195 l 3.149679,-0.2946 v -6.5195 l 2.04897,-0.1916 v -2.6045 l -2.150773,0.2012 v -0.4769 c 0,-0.4741 0.271035,-0.7706 0.745174,-0.8149 l 1.388546,-0.1299 v -2.4216 z m 56.888001,-5.3205 v 6.5195 l 0.03411,2.6013 v 0.7313 c 0,1.8458 1.015675,2.8174 2.946074,2.6369 l 2.201416,-0.2059 v -2.4215 l -1.388546,0.1299 c -0.47414,0.044 -0.745174,-0.2015 -0.745174,-0.6756 v -3.2365 l 2.150773,-0.2011 v -2.6045 l -2.048971,0.1916 v -3.76 z m -54.327434,5.0821 v 2.4882 l 3.115573,-0.2914 v -2.4882 z m 19.31045,-1.1807 c -3.809987,0.3563 -6.519499,3.2175 -6.519499,6.8243 0,3.6237 2.709512,5.9782 6.519499,5.6219 0.795859,-0.074 1.557789,-0.2644 2.252059,-0.5325 l 1.62264,3.0046 3.1734492,-2.5122 -2.4592812,-2.0484 c 1.2191986,-1.2316 1.9301146,-2.8732 1.9301146,-4.7528 0,-3.6237 -2.7089956,-5.9612 -6.5189816,-5.6049 z m -11.348662,3.7537 c -2.692387,0.2518 -4.504118,2.0806 -4.504118,4.6375 v 5.2327 l 2.585372,-0.2418 c 1.406669,-2.6215 0.155546,-6.4637 0.155546,-6.4637 0,0 3.862297,0.8873 3.862297,6.088 l 2.405021,-0.225 v -5.2327 c 0,-2.5569 -1.79481,-4.0484 -4.504118,-3.795 z m 32.5086104,-3.0233 c -2.8786472,0.2692 -4.96145431,2.5301 -4.96145431,5.3241 0,2.7939 2.09973711,4.6803 4.96145431,4.4127 2.2859877,-0.2138 4.1484962,-1.6921 4.7919556,-3.835 l -3.1491619,0.2945 c -0.2878697,0.5689 -0.9146645,0.9491 -1.6427937,1.0172 -0.999069,0.093 -1.6592189,-0.3867 -1.8624187,-1.4175 l 6.7902833,-0.6351 c 0.0339,-0.2911 0.05064,-0.5632 0.05064,-0.8511 0,-2.6755 -2.0321206,-4.5854 -4.9785076,-4.3098 z m 9.3337976,-0.873 c -2.336798,0.2186 -3.91139,1.5513 -3.91139,3.3801 0,2.2182 1.879209,2.466 3.301608,2.5701 0.880529,0.053 1.575097,0.1402 1.575097,0.6651 0,0.4741 -0.44042,0.7527 -0.897619,0.7955 -0.59266,0.055 -1.066602,-0.2052 -1.066602,-0.8826 l -3.031339,0.2835 c 0.0339,1.978 1.541047,3.1579 4.030245,2.9251 2.438387,-0.228 4.046781,-1.6316 4.046781,-3.5451 0,-2.3029 -1.913045,-2.4284 -3.369303,-2.5462 -0.8636,-0.072 -1.558045,-0.1427 -1.558045,-0.6507 0,-0.4234 0.338461,-0.7086 0.84646,-0.7561 0.5588,-0.052 0.948263,0.1819 0.948263,0.7577 l 2.963643,-0.2771 c -0.0339,-1.8427 -1.557942,-2.9362 -3.877799,-2.7193 z m -49.821249,4.9474 v 9.1441 l 3.149679,-0.2946 v -9.1441 z m 26.1927167,-2.4497 v 5.2327 c 0,2.5569 1.8117305,4.0469 4.5041178,3.7951 2.7093173,-0.2534 4.50411783,-2.0807 4.50411783,-4.6376 v -5.2327 l -3.14916183,0.2945 v 5.0974 c 0,0.9483 -0.5082969,1.5715 -1.354956,1.6507 -0.8297292,0.078 -1.3544393,-0.4321 -1.3544393,-1.3973 v -5.0974 z m -6.8652137,0.6762 c 1.811858,-0.1695 3.115572,1.0462 3.115572,2.8919 0,1.8626 -1.303714,3.3222 -3.115572,3.4917 -1.794929,0.1679 -3.133142,-1.0616 -3.133142,-2.9073 0,-1.8288 1.338213,-3.3084 3.133142,-3.4763 z m 21.1599484,0.1713 c 0.948259,-0.089 1.6085421,0.3407 1.8794718,1.2298 l -3.6912476,0.3452 c 0.2539998,-0.9381 0.8973767,-1.4895 1.8117758,-1.575 z" /><path
       id="path335"
       style="mix-blend-mode:normal;fill:url(#linearGradient337);fill-opacity:1;stroke:none;stroke-width:0.465;stroke-linecap:round;stroke-linejoin:miter;stroke-dasharray:none;paint-order:stroke markers fill"
       d="m 20.247077,1252.5074 c 0,0 -0.007,0.8959 -0.0088,1.1739 0,1.281 0.424481,2.3076 1.450074,2.4185 1.025593,0.1109 1.74539,-0.096 2.616384,-0.1389 l 0.02207,-1.3847 c -2.129164,0.4374 -2.198802,-0.2285 -2.198802,-1.9929 -0.659592,-0.4495 -1.283624,-0.4368 -1.880882,-0.076 z m -5.014655,0.893 c 0.76772,0.01 1.648605,0.6391 1.33789,1.4883 -0.371501,1.2073 -2.420055,1.3532 -2.867187,0.1308 -0.67513,0.063 -1.35026,0.1263 -2.025391,0.1895 0.208826,1.5377 1.952472,2.1042 3.30334,1.9269 1.609185,-0.078 3.530387,-1.0108 3.651359,-2.8119 0.03385,-0.4548 -0.01203,-0.9424 -0.265245,-1.3338 -0.828506,0.5215 -2.051446,0.3417 -3.134766,0.4102 z m -17.3667763,0.1155 c 0,0 0.021073,0.044 0.021073,1.4861 0,1.4423 -1.1211407,2.3987 -2.3812889,2.1172 -0.9441127,-0.1118 -1.4546977,-1.1218 -1.3843361,-1.9962 -0.6455939,0.3922 -1.3485061,0.7228 -2.0664063,0.9844 0.06023,1.611 1.5429553,2.853 3.1175403,2.825 2.0439148,0.1614 4.33700842,-1.0541 4.70881788,-3.2049 0.13010207,-0.5848 0.09092936,-1.1877 0.09746994,-1.7822 -0.61741971,-0.2113 -2.11286992,-0.4294 -2.11286982,-0.4294 z m -19.1742397,0.654 c -0.334589,2.1875 0.779514,4.6304 2.927735,5.4258 1.77469,0.7161 3.786285,0.4355 5.517578,-0.2695 0.514174,0.9492 1.025912,1.8998 1.539062,2.8496 0.723308,-0.5723 1.4466148,-1.1445 2.1699221,-1.7168 -0.7975282,-0.6641 -1.5950201,-1.3282 -2.3925781,-1.9922 0.559941,-0.5778 1.117014,-1.1766 1.474609,-1.9063 -0.882323,0.1136 -1.774381,0.1829 -2.664062,0.1348 -1.388096,1.6914 -4.432836,1.849 -5.695313,-0.074 -0.378183,-0.5595 -0.572034,-1.2318 -0.589843,-1.9043 -0.702211,-0.3813 -1.477394,-0.6375 -2.28711,-0.5469 z m 22.6933596,0.075 c 0.1210267,2.3478 1.81818,3.8105 3.7156957,3.7709 1.9060899,0.091 3.8478778,-0.9758 4.6788356,-2.715 l -2.0566407,0.2265 c -0.9278716,1.3042 -3.3740322,1.4583 -4.0780978,-0.1439 -0.558773,-0.9064 -1.5722967,-1.0205 -2.2597928,-1.1385 z m -41.0685536,1.4953 c -0.0087,2.0684 -0.0012,4.1368 -0.0037,6.2052 0.697266,-0.065 1.394531,-0.1302 2.091797,-0.1953 v -6.5195 l -2.093276,-0.7712 c 0,0 0.0063,0.89 0.0052,1.2808 z m 16.800976,-1.1682 c -1.005696,0.4154 -1.92551,1.0053 -2.830079,1.6035 1.047244,1.1778 1.533823,2.7589 1.609375,4.3125 l 1.388023,-0.1874 c 0.05772,-0.4164 -0.0092,-1.7083 0.0027,-2.9754 0.01117,-1.1845 0.02862,-2.3473 -0.170049,-2.7532 z m -11.28125,6.8554 c 0.697265,-0.065 1.394531,-0.1302 2.091796,-0.1953 v -3.4043 c -0.74452,-0.2853 -1.424175,-0.6339 -2.091796,-1.0642 z m 3.474609,-3.2519 v 2.9277 c 0.592865,-0.051 1.278141,-0.099 1.751772,-0.2523 0.398066,-0.9488 0.477605,-2.001 0.422056,-3.0192 -0.572619,0.2498 -1.316131,0.4389 -2.173828,0.3438 z"
       sodipodi:nodetypes="cczccccccccccccczcccccccccccccccccscccccccscccccsccccscccccccccccc" /></g></svg>
